# xmcd
#
# Track frame offsets: 
#        150
#        14550
#        29514
#        41466
#        53117
#        67456
#        79217
#        94473
#        107012
#        118881
#        132698
#
# Disc length: 1959 seconds
#
# Revision: 0
# Processed by: cddbd v1.5.2PL0 Copyright (c) Steve Scherf et al.
# Submitted via: ExactAudioCopy v0.95b4
#
DISCID=a807a50b
DTITLE=David Statzer - Until I Get It Down
DYEAR=2007
DGENRE=Country
TTITLE0=Until I Get It Down
TTITLE1=I Refuse To Get The Blues
TTITLE2=My Baby And Me
TTITLE3=Out Of His Hands
TTITLE4=Rocker Rolling On The Country Side
TTITLE5=Save The Wildlife
TTITLE6=Hold You To It
TTITLE7=Her Leaving Left Me Going
TTITLE8=My Heart Has A Mind Of Its Own
TTITLE9=Me All Alone
TTITLE10=I Know A Goodbye
EXTD=
EXTT0=
EXTT1=
EXTT2=
EXTT3=
EXTT4=
EXTT5=
EXTT6=
EXTT7=
EXTT8=
EXTT9=
EXTT10=
PLAYORDER=
